<?xml version="1.0" encoding="UTF-8"?>
<svg version="1.1" viewBox="0 0 1094 2048" width="1280" height="1280" xmlns="http://www.w3.org/2000/svg">
<path transform="translate(0)" d="m0 0h1094v2048h-1094z" fill="#FEFEFD"/>
<path transform="translate(498,52)" d="m0 0h29l21 2 28 5 36 9 29 9 28 10 27 11 20 9 35 16 23 11 46 26 12 8 1 2-13 34-11 26-14 41-8 17 1 3 15 9 13 10 12 11 9 10 10 15 10 19 11 29 4 19 2 27v49l-3 26-5 21-9 25-9 20 2 4 6 5 7 10 5 11 3 13v16l-4 15-8 18-10 16-9 11-13 13-13 9-21 11-18 6-16 3h-20l-12-3-10-5-8-7-6-9-4-11v-4l-17 11-22 12-22 10-22 8-14 4h-3l2 7v4l8-5 3-1h12l9 4 9 6 4 4 6-3h11l12 6 15 14 7 7 9 11 12 16 16 23 10 14 8 11 1 9-3 9-7 11-4 4 2 6 10 17 11 16 16 21 7 9 5-15 9-17 13-18 11-14 13-17 11-13 9-11 12-15 5-9-1-6-1-2v-12l3-11 11-16 3-8 1-13 3-6 3-2h5l4 6 2 7v13l-4 16 18-13 21-12 23-11 35-13 8-2h11l6 3h19l5 3 1 4-1 4 4 3-1 5-7 6-21 11h-2l1 2v7l-4 6-9 7-11 7-10 8-17 14-12 7-17 5-13 2h-14l-9-1-7 10-15 23-33 51-22 33-12 21-8 15-8 9-4 2h-11l-11-7-10-11-14-19-16-23-16-27-8-14-11 5h-6l-6-4-7-7-11-18-8-13-2-1-9 21-12 25-13 27-7 11-5 12-1 11 3 9 14 25 10 17 5 12 1 5v10l-3 7v7l8 8 9 15 8 15 7 12 5 16 4 20 3 29v31l-3 34-5 33-8 38-6 24-1 11v51l2 33v9l-3 10-5 6-16 8-22 7-16 3h-22l-24-4v11l-1 13v27l4 24 6 26 8 13 15 26 13 24 12 22 18 34 13 23 12 21 16 26 14 25 13 21 12 16 9 10 20 7 6 6 2 6v17l-7 31-8 34-7 21-4 8-9 10-13 9-15 8-9 2-10 1h-11l-14-2-10-5-3-5v-7l5-9 6-7 13-10 13-9 7-6 7-10 6-17 4-17 3-26-1-10-5-16-8-17-12-19-14-19-14-18-12-17-16-23-17-25-18-27-1 50v75l1 56 2 22 4 19 9 27 2 18-1 7-4 5-12 5-15 5-25 11-20 7-20 5-16 2-28 1h-30l-15-3-10-5-5-4-3-5 1-6 5-6 9-5 16-6 27-7 28-7 33-11 25-10 7-4 4-11 4-16 2-15v-44l-5-55-7-61-9-69-7-54-3-7-15-24-18-27-8-13-4-10-1-10 2-14 5-15v-2l-9 1h-19l-2-2-1-9v-45l-13-52-20-63-9-34-6-30-3-24-1-17v-12l2-24 5-23 6-17 8-16 9-14 2-3v-12l-7-6-2-5 1-10 8-18 2-5-6-33-10-67-1-10v-31l-5 2h-5l-8-10-6-11-9 5-13 8-19 9-28 10-9 2h-9l-11-4-8-7-8-9-14-22-13-19-16-23-11-18-10-18-9-20-4-6-4-3-12-1-14-8-7-8-6-14-2-6-12 2h-21l-7-3-1-1v-9l4-6 2-2-9-4v-8l8-19-1-7-2-6v-6l4-4h11l4 1-2-5v-3l-16 6-10 3h-4l-2-3 1-6 7-4 14-4-25-60-11-30-12-36-3-8-1-2v-10l3-2v-9l5-3h3l-19-54-18-50 1-3 19 43 26 60h8l2 5 8-1 5 5 11 26 19 52 13 33 6 19 2 8 13-5 5-2 5 1v3l7 1 7 8 4 11 2 10 1 11v13l1 2 4 36 5 26 7 18 13 22 15 25 18 27 12 16 13 16 10 11 9-1 16-8 27-12 7-4 2-1-10-4-4-1 1-5 8-3 35-10 27-9 20-9 19-10 10-6 14-5h12l22 1 2-4 10-6 21-10h2v-8h-4v-2l-16 4-10 1h-11l-24-3-24-6-18-7-11-6-16-12-16-13-10-9-8-7-12-12-9-11-10-14-8-16-5-15-3-17v-33l1-11v-24l-5-21-7-25-3-21v-17l-6-1-11-7-8-7-9-11-9-14-8-17-6-19-3-16-1-19 2-14 6-18 8-14 8-10 10-7 6-2 13-1 14-8 15-7 5-1-12-39-16-57 2-5 7-8 10-13 9-10 7-8 23-23 11-9 13-11 17-12 16-8 16-6 22-5z" fill="#4A1D08"/>
<path transform="translate(361,369)" d="m0 0 5 2 16 8 18 8 35 12 34 9 27 6 26 4 21 2 20 1h45l45-2 36-3 14-2h6l5 10 9 8 14 8 23 9 4 8 5 18 3 16 3 27v21l-4 38v8l3 1 8-7 5-4v9l5-1 7-11h4l4 5h2l-1-6-2-5 7-3 4 1 1 6 4-2v-7l-4-4h-10l-8 4-7 5 2-6 5-14 2-9 8-6 9-2 6 3 3 5 1 4v14l-3 14-6 14-12 13-8 7-9 3-7-2-4-4v-2h-2l-1 7-11 17-11 15-9 11-11 12-12 12-11 9-13 10-15 10-18 10-27 13-28 10-27 8-22 4-33 4-15 1h-28l-8-2-16-8-12-7-17-12-14-11-13-11-13-12-11-12-12-16-9-15-7-16-4-14-1-6v-29l2-18v-23l-6-25-5-24-2-24v-11l2-23 4-21 9-27z" fill="#FFFFFE"/>
<path transform="translate(548,242)" d="m0 0h15l23 1 35 4 31 6 29 8 24 10 25 13 25 10 26 13-15-11-9-6 2-1 17 6 23 12 12 8 10 9 7 7 11 15 10 21 7 21 5 21 3 21 1 11v38l-3 28-5 25-5 17-9 21-10 19-11 16-8 10-9 10-12 12-17 13-17 10-16 6 2-4 10-12 12-17 10-18 3-7 6 3h12l12-6 9-8 9-14 6-16 3-13v-14l-3-10-5-8-8-4-7 1-6 4-5 5-2-12-4 24-5 19-6 12-6 7h-4l1-11 5-25v-26l-3-26-4-17-7-19v-2l9 1h16l8-3 1-1-21-1-25-6-13-5-11-6-16-14-3-4 16-4 20-6 21-9 12-7 10-8-15 8-19 7-25 7-24 5-25 4-34 3h-60l-43-3-34-4-31-6-30-8-33-11-30-9-21-10-16-11-12-11-7-10-4-11v13l4 10 4 6 7 8 14 10-3 5-8 11-8 15-6 18-3 15-2 22-4-1-8-7-10-13-9-14-8-17-7-23-3-20v-26l4-15 6-10 7-8 10-6 9-3h12l-2-1v-2l64-18 40-10 40-8 34-5 22-2z" fill="#FEFEFD"/>
<path transform="translate(638,1089)" d="m0 0 3 3 10 18 11 23 7 21 5 25 2 24v42l-2 26-5 32-7 33-8 34-8 51 5-17h1l1 39 1 13-3 7-9 8-15 6-21 5-16 1-18-2-45-10-17-2h-32l-15 4h-3l1-31 4-31 7-31 15-52 9-25 13-34 12-28 11-23-4 5-10 15-12 21-11 21-12 28-15 44-10 38-3 12-2-4-15-56-12-45-8-36-5-32-2-23v-32l3-18 6-21 12-31h3l5 5 12 5 25 6 13 2 12 1h14l25-3 29-5 21-5 24-8 16-7z" fill="#FEFEFD"/>
<path transform="translate(494,66)" d="m0 0h34l25 3 28 6 42 12 41 14 35 14 33 15 26 13 22 12 25 14 15 9 1 4-18 39-9 25-9 27-6 12-5-1-9-3h-23l-22-12-21-10-24-9-27-7-29-5-32-3h-65l-38 4-35 6-55 12-24 6-10 2-3-14-5-15-11-44-6-20 2-4 7-8 11-12 23-23 8-7 14-12 20-15 13-8 15-7 20-6 16-3z" fill="#FFFFFE"/>
<path transform="translate(655,777)" d="m0 0 11 2 10 5 14 12 7 7 7 8 12 14 14 19 16 24 1 2v7l-5 8-7 7-20 16-9 4h-10l-8-5-7-9-12-20-15-27-9-15v-2l-5 1 1 6 10 20-1 2-9-9-9-7-3-1 3 5 9 9 7 8 9 10-2 6-11 21-13 23-17 34-8 20v10l7 9 8 16 12 21 5 14 1 8-2 8-4 6-8 6-10 4-16 3h-27l-32-4-27-4-3-2 14-4-13 2 1-19-5-61-1-14v-52l3-22 6-21 9-21 13-27 4-10 7-3 16-9 27-13 33-15 10-5-3 10-2 8h3l2-6 7-11 9-6z" fill="#FFFFFE"/>
<path transform="translate(520,789)" d="m0 0h2l5 13 8 17 4 6-11 22-9 17-9 21-6 18-4 19-1 8v45l3 33 4 40 2 14v10l-1 4-26 6-7 1h-24l-9-3-5-4-4-8-1-8 3-9 2 3v-13l-3-35-6-44-3-21-1-20 2-17 7-23 8-15 9-10 11-10 14-10 12-11 1-3-19 13-17 12-13 11-9 10-6 10-4 11-4 2-7-1-6-7-13-22-9-12-8-7-3-3 44-11 23-8 23-14 16-9 10-4 4-1h10l6 2 5-3z" fill="#FFFFFE"/>
<path transform="translate(897,772)" d="m0 0 4 2 1 3v9l-4 15 1 8 5 5 9 7 3 4-5-9-7-6 1-4 9-4 9-1 13 2 12 5 9 7 4 4 1 2 16-4 17-12 9-5h6l2 4-4 5-11 7-10 8-12 11-7 6-12 6-20 6-13 1-13-3-13-7-6-7v7l4 6 2 2-1 4-12 19-12 18-11 17-16 25-14 22-12 19-10 17-6 11-6 5h-9l-8-5-6-5-9-11-14-18-32-48-3-4 1-5 11-6 6-4 4 5 8 16 10 16 15 22 9 11 4 3v14h2l3-10 4-16 8-16 13-21 14-19 16-21 8-10 11-12 7-7 7-11 3-7-1-8-2-7v-10l4-8 8-10 4-16 3-8z" fill="#FFFFFE"/>
<path transform="translate(487,1477)" d="m0 0 14 2 14 3-6 15v15l5 13 9 13 15 20 12 18 12 19 15 26 15 28 23 45 15 29 13 23 10 17 12 19 16 25 13 21 8 14 5 7 10 8 2 5v16l-4 22-8 28-6 16-6 10-11 11-4 2-6-1v-4l8-8 8-13 4-11 4-27 1-7v-14l-1-18-6-16-9-17-10-15-26-36-12-17-16-23-15-22-29-43-11-18-12-19-17-28-19-32-20-35-9-15-4-9-1-4v-19l4-12z" fill="#FFFFFE"/>
<path transform="translate(843,589)" d="m0 0 5 4 7 11 4 11 1 7v9l-3 16-5 13-8 15-12 16-8 9-8 7-13 9-16 8-16 5-6 1h-22l-13-4-9-5-9-8-7-11-1-3 13-11 11-9 3-3 3 1 1 11 5 12 6 5-6-9-2-5v-11l1-4 16-5 17-8 10-7 5 2 7 9 6 10 6 15h1l-1-11-5-12-6-10-5-6 2-4 15-13 9-9 11-14 10-14z" fill="#FFFFFE"/>
<path transform="translate(152,670)" d="m0 0 6 2 11 5h26l8 3 3 4 5 18v40l4 12 8 15 21 32 15 24 10 15 9 12 12 14 13 11 8 4v-3l16-5 19-8 16-7 8-5 4 1 5 8 7 12-10 7-16 8-27 11-15 5h-13l-8-3-10-9-9-12-9-14-14-20-10-14-10-15-10-18-12-23-10-17-4-2-19-3-9-6-6-7-4-9-1-9 5-5 1-2v-7l-2-3-1-9-4-9 1-2 16 6 2 2-1 7-5 9-1 4v8l4 10 4 1 1-3-4-8-1-7 3-9 6-10v-6l-11-5-15-6-6-4z" fill="#FFFFFE"/>
<path transform="translate(535,1621)" d="m0 0 4 4 15 26 14 24 1 13v131l2 69 3 20 3 12-6 4-2 2-4 11-9 10-14 8-15 6-23 6-13 2-14 1-16-1-7-2 2-2 29-9 30-10 21-9 10-6 6-13 5-18 2-14v-38l-4-51-8-72-12-100z" fill="#FFFFFE"/>
<path transform="translate(487,106)" d="m0 0h4l1 15v22l36-3 1 2-1 26-27 2h-8l1 37-27 1-2-36-36 2-2-25 30-3h7l-1-4-1-17v-17l7-1z" fill="#4A1D08"/>
<path transform="translate(542,867)" d="m0 0 6 1 33 1 18 1 13 3-2 9-4 13-3 16-5 10-7 6-23 11-6 4-7 1-5-5-11-17-3-8-1-6 1-17 5-22z" fill="#FFFFFE"/>
<path transform="translate(575,1924)" d="m0 0 3 3 8 17 2 8v7l-7 6-15 7-16 7-14 6-23 6-32 5-26 3h-32l-13-3-7-4v-9l5-6 8-5 12-4h11l5 2 4 3 10 2h31l17-2 19-5 16-6 14-7 10-8 6-7 3-7z" fill="#FFFFFE"/>
<path transform="translate(102,488)" d="m0 0 9 1 5 23 8 24 15 37 11 27-4 2-25 10h-2l-12-28-19-53-11-25-2-5 1-4 18-6z" fill="#FFFFFE"/>
<path transform="translate(591,627)" d="m0 0h3l1 4-7 10-10 19-11 14-10 9-14 8-14 4h-16l-16-4-25-12-11-6-14-3-12-5-9-7v-3l5 2 12 5 14 3h31l20-3 28-7 20-7 16-8 10-6z" fill="#4A1D08"/>
<path transform="translate(502,1080)" d="m0 0 18 4 26 5 18 2h30l19-3 18-6h2l-2 4-7 6-18 8-18 7-18 3-42 4h-30l-22-3-25-6-9-5-4-5-2-8 5 1 15 4h10l13-4z" fill="#FFFFFE"/>
<path transform="translate(724,1862)" d="m0 0 9 2 6 7 3 8v15l-5 17-4 10-8 32-8 20-9 13-8 7-12 6-10 2h-12l-16-3-6-4-1-5 5-6 16-12 4 1 3 1h11l9-6 8-9 9-16 6-14 6-25 2-14v-26z" fill="#FFFFFE"/>
<path transform="translate(539,864)" d="m0 0h63l12 2 4 2 1 4-7 26-4 20-4 8-10 6-17 7-13 9-5 2h-6l-6-4-6-7-9-17-2-6-1-13 3-17zm3 3-3 9-3 14-1 17 3 12 10 16 5 7 6 1 24-12 11-6 6-7 4-11 3-16 5-15v-3l-13-3-18-1-33-1z" fill="#4A1D08"/>
<path transform="translate(524,1483)" d="m0 0 10 1 15 4 5 2-1 13-3 24v18l3 23-4-4-16-24-5-7-3-39z" fill="#FFFFFE"/>
<path transform="translate(581,486)" d="m0 0h6l6 4 5 8 4 15v15l-2 9-5 8-3 2h-7l-6-5-5-10-3-13v-14l4-13 5-5z" fill="#4A1D08"/>
<path transform="translate(389,489)" d="m0 0 7 1 6 5 5 11 2 8v20l-4 11-5 5h-7l-8-7-5-12-2-17 2-13 4-8z" fill="#4A1D08"/>
<path transform="translate(577,648)" d="m0 0 2 1-11 14-9 9-13 9-15 7-3 1h-17l-14-4-24-10-1-2 28-2 30-5 22-6 16-7z" fill="#FFFFFE"/>
<path transform="translate(612,762)" d="m0 0h8l10 5 3 3-1 5-9 6-17 9-33 15-12 6-2-1 11-13 9-10 11-9 16-12z" fill="#FFFFFE"/>
<path transform="translate(1036,771)" d="m0 0 7 1 1 5-5 4-14 6-12 6-11 4-9 6-10 9-14 7h-4l-6-12 11-5 18-8 23-11 22-11z" fill="#FFFFFE"/>
<path transform="translate(387,446)" d="m0 0h12l8 2 6 4 4 7-1 6-6 5h-6l-8-6h-9l-5 2-5 6-2 1h-7l-2-6 4-10 8-7z" fill="#4A1D08"/>
<path transform="translate(574,438)" d="m0 0h8l11 3 7 6 2 4-1 7-5 4-5 1-11-7-10 1-3 1-4 6-4 2-6-1-1-1v-8l5-8 7-6z" fill="#4A1D08"/>
<path transform="translate(185,626)" d="m0 0 6 1 5 5 4 12 3 15 1 11-16 1h-11l-9-2-2-2 19-8 6-4 1-2v-6h-10l6-8 2-3v-3l-4 1-10 12-3 4-6-1 2-7 8-11 5-4z" fill="#FFFFFE"/>
<path transform="translate(1034,764)" d="m0 0 7 1-1 3-16 5-19 8-42 22-5 2-5-1-8-4v-2l49-22 30-10z" fill="#FFFFFE"/>
<path transform="translate(586,751)" d="m0 0h5l3 12v3l-11 9-13 12-11 12-1 2h-2l4-18 5-2 1-2v-7l-3-15 6-2z" fill="#FFFFFE"/>
<path transform="translate(454,567)" d="m0 0h3l-2 5-8 13-3 8v11l3 5 8 4 8 2 12-1 12-5 10-7 3 1-2 4-8 8-12 7-11 3h-8l-9-3-6-4-6-7-3-8 1-10 5-10 8-10z" fill="#4A1D08"/>
<path transform="translate(1e3 760)" d="m0 0h12v2l-32 13-36 18-7 4h-19l3-3 16-8 25-12 21-9z" fill="#FFFFFE"/>
<path transform="translate(556,771)" d="m0 0 2 1-5 17-9 28-3-3-8-15-3-9 1-5 10-6 14-7z" fill="#FFFFFE"/>
<path transform="translate(152,609)" d="m0 0 2 3 4 13v2l-24 9-5 1-5-12-1-5 7-3 15-5z" fill="#FFFFFE"/>
<path transform="translate(153,639)" d="m0 0 4 1 5 15-1 3-10 4-7 1-7-16v-2z" fill="#FFFFFE"/>
<path transform="translate(122,659)" d="m0 0h6l11 13 7 8 8 13 3 6-1 2-10-9-11-9-9-10-5-10z" fill="#FFFFFE"/>
<path transform="translate(125,709)" d="m0 0 7 1 10 2h12l4-1v5l-5 4-12 3h-18l-4-4 3-7z" fill="#FFFFFE"/>
<path transform="translate(122,679)" d="m0 0 19 19 8 6v2l-20-3-11-2-1-1v-8z" fill="#FFFFFE"/>
<path transform="translate(591,497)" d="m0 0 4 2 2 3 1 8-3 7-5-1-3-6v-8l2-4z" fill="#FFFFFE"/>
<path transform="translate(398,500)" d="m0 0 4 2 3 6v8l-2 4h-5l-3-5v-11z" fill="#FFFFFE"/>
<path transform="translate(94,481)" d="m0 0 3 1-2 2-14 5h-2l1-4z" fill="#FFFFFE"/>
</svg>
